# xmcd
#
# Track frame offsets:
#	150
#	4537
#	27920
#	50055
#	71255
#	93525
#	116990
#	137277
#	153597
#
# Disc length: 2312 seconds
#
# Revision: 4
# Processed by: cddbd v1.5.2PL0 Copyright (c) Steve Scherf et al.
# Submitted via: audiograbber 1.83.01
#
DISCID=70090609
DTITLE=Graham Central Station - Graham Central Station
DYEAR=1974
DGENRE=Funk
TTITLE0=We've Been Waiting
TTITLE1=It Ain't No Fun To Me
TTITLE2=Hair
TTITLE3=We Be's Gettin' Down
TTITLE4=Tell Me What It Is
TTITLE5=Can You Handle It?
TTITLE6=People
TTITLE7=Why?
TTITLE8=Ghetto
EXTD=Label - Warner Bros.\n\nAll songs written by Larry Graham, except:\n2. Al 
EXTD=Green\n7. L. Graham-F. Stone YEAR: 1973
EXTT0=
EXTT1=
EXTT2=
EXTT3=
EXTT4=
EXTT5=
EXTT6=
EXTT7=
EXTT8=
PLAYORDER=
